<?xml version="1.0" standalone="no"?>
<!DOCTYPE svg PUBLIC "-//W3C//DTD SVG 20010904//EN"
 "http://www.w3.org/TR/2001/REC-SVG-20010904/DTD/svg10.dtd">
<svg version="1.0" xmlns="http://www.w3.org/2000/svg"
 width="600.000000pt" height="600.000000pt" viewBox="0 0 600.000000 600.000000"
 preserveAspectRatio="xMidYMid meet">
<metadata>
Created by potrace 1.11, written by Peter Selinger 2001-2013
</metadata>
<g transform="translate(0.000000,600.000000) scale(0.100000,-0.100000)"
fill="#000000" stroke="none">
<path d="M1182 5922 c-11 -7 -13 -27 -8 -83 9 -118 25 -355 31 -464 16 -312
28 -471 36 -482 6 -7 6 -12 -1 -15 -7 -2 -9 -14 -5 -30 l7 -26 138 -7 138 -7
6 -37 c3 -20 6 -73 6 -118 0 -76 -2 -83 -29 -110 -15 -16 -34 -27 -41 -25 -7
3 -10 0 -6 -6 3 -5 -1 -13 -9 -16 -21 -7 -15 -30 10 -37 11 -4 39 -4 62 -1
l41 4 6 -53 c4 -30 8 -92 10 -139 l4 -85 -35 -24 -36 -23 -196 11 c-108 6
-229 11 -268 11 -67 0 -73 -2 -73 -21 0 -12 8 -23 19 -26 15 -4 20 -21 29
-106 24 -225 148 -1242 187 -1537 9 -63 23 -173 33 -245 l17 -130 235 -34
c179 -25 239 -30 252 -22 10 6 18 8 18 4 0 -5 5 -48 10 -98 33 -312 33 -310 6
-352 -14 -21 -35 -50 -46 -66 -12 -15 -20 -34 -17 -41 9 -23 188 -51 1562
-251 319 -46 636 -93 704 -104 82 -14 129 -17 140 -11 16 10 14 11 -29 13 -17
2 -26 9 -28 23 -6 45 61 37 70 -9 7 -34 -1 -47 -28 -47 -27 0 -558 74 -1084
151 -190 28 -408 59 -485 70 -77 10 -162 23 -190 28 -27 5 -144 24 -258 42
-180 29 -210 31 -217 19 -8 -13 -10 -12 -10 1 0 21 -12 26 -86 33 -40 4 -51 3
-34 -3 14 -5 40 -9 58 -10 18 -1 35 -7 37 -13 2 -7 22 -195 44 -417 l41 -404
-20 -27 c-26 -36 -25 -50 1 -50 16 0 19 -4 14 -19 -7 -22 3 -26 80 -36 28 -3
57 -8 65 -10 8 -2 159 -30 335 -61 176 -31 354 -62 395 -70 41 -8 129 -23 195
-35 269 -46 347 -59 490 -84 83 -15 219 -37 304 -51 85 -13 157 -26 159 -29
12 -11 -6 -13 -48 -5 -25 5 -94 16 -155 25 -60 9 -157 25 -215 35 -58 10 -130
21 -160 25 -30 3 -163 26 -295 50 -132 24 -296 53 -365 65 -69 11 -188 32
-265 45 -155 28 -189 31 -165 15 12 -8 10 -10 -9 -10 -16 0 -21 4 -18 14 4 9
-5 15 -26 19 -242 44 -261 47 -268 35 -6 -9 -11 -9 -23 1 -11 9 -23 10 -43 3
-20 -7 -23 -11 -13 -15 21 -7 374 -73 575 -107 93 -16 298 -52 455 -80 157
-28 312 -55 345 -60 33 -5 85 -14 115 -20 30 -6 82 -15 115 -19 33 -5 181 -30
329 -55 168 -29 273 -43 279 -37 8 8 16 36 33 125 13 64 34 160 72 326 23 96
49 213 59 260 18 85 19 85 52 88 18 2 91 -4 163 -13 71 -9 132 -15 134 -12 3
3 7 36 10 73 7 103 21 195 24 159 l2 -30 8 30 c4 17 8 55 7 85 0 53 0 54 -7
15 l-7 -40 -2 52 c0 28 -6 55 -12 59 -6 3 -9 15 -6 25 5 19 -9 27 -15 9 -3
-11 -87 -3 -108 10 -8 5 -10 20 -5 49 l7 41 71 -3 c53 -1 74 -6 78 -17 5 -13
15 54 32 222 4 30 -6 34 -125 45 -50 4 -75 12 -94 28 l-27 23 13 128 c6 71 12
153 13 183 2 51 0 55 -26 64 -16 5 -30 7 -33 5 -6 -7 -117 -396 -195 -683 -47
-178 -70 -246 -55 -165 7 37 128 491 226 845 l58 210 29 3 30 3 6 -82 c7 -88
14 -103 40 -93 20 7 30 36 32 95 2 57 9 69 38 61 l22 -6 -22 -5 -23 -6 26 -33
c22 -27 32 -32 68 -32 32 0 48 6 66 25 25 26 21 38 -25 76 -19 16 -19 19 -2
182 10 90 15 177 11 192 -5 20 -4 26 5 21 6 -4 11 -19 11 -33 0 -49 11 -16 29
88 11 57 19 89 20 72 1 -18 6 -33 12 -33 7 0 9 10 5 24 -5 20 -1 27 26 40 17
9 39 16 48 16 23 0 28 21 36 161 7 113 6 117 -15 124 -11 3 -21 15 -21 25 0
11 -7 17 -17 16 -12 -1 -17 5 -16 19 1 11 -4 23 -10 27 -8 5 -8 8 -1 8 6 0 9
13 6 30 -2 17 0 30 6 30 13 0 22 51 26 150 4 86 1 89 -32 27 -11 -21 -22 -33
-24 -27 -2 6 -27 14 -56 19 -40 6 -55 5 -63 -6 -10 -11 -14 -8 -25 13 -16 31
-18 58 -4 49 17 -10 31 46 33 129 1 51 4 70 9 55 5 -15 6 -6 3 21 -3 25 -1 59
4 75 5 17 10 23 11 15 0 -8 7 -1 15 15 19 43 18 28 -9 -109 -37 -182 -40 -212
-24 -218 9 -4 13 4 12 31 -2 37 41 284 51 302 4 5 13 9 21 9 17 0 19 16 2 23
-8 3 -6 6 5 6 21 1 21 2 2 -95 -8 -44 -19 -122 -25 -174 -6 -52 -16 -98 -23
-102 -9 -6 -8 -10 3 -18 14 -9 29 -13 30 -7 1 1 12 76 25 166 13 90 28 168 33
173 7 7 2 -46 -22 -227 -3 -22 -3 -32 0 -22 3 9 10 15 15 11 5 -3 7 -9 4 -14
-7 -11 -24 -100 -19 -100 10 0 33 74 43 136 27 171 31 223 19 249 -10 23 -20
28 -79 39 -9 2 -23 0 -31 -5 -12 -7 -14 -3 -10 19 2 15 8 32 13 38 8 10 1 114
-8 114 -16 0 -34 -35 -36 -68 -1 -22 -5 -38 -8 -36 -7 4 -49 -215 -104 -541
-19 -114 -23 -130 -24 -85 -1 59 30 310 59 480 13 76 15 107 7 112 -8 5 -6 12
5 25 20 22 36 79 19 69 -6 -4 -11 -13 -11 -21 0 -7 -10 -26 -22 -42 -13 -15
-33 -48 -46 -73 -13 -25 -34 -58 -48 -74 -29 -33 -43 -24 -44 29 -1 17 -7 98
-14 180 l-14 150 34 38 c44 48 44 61 1 19 -18 -18 -36 -30 -39 -27 -3 4 -5 -1
-4 -11 0 -10 -8 -18 -21 -20 -26 -4 -30 8 -8 26 9 7 15 30 15 54 1 22 9 65 19
93 19 56 17 70 -7 51 -13 -11 -14 -6 -7 32 4 25 13 55 21 68 32 49 107 52 144
5 11 -14 22 -24 25 -21 7 7 -26 43 -52 56 -31 17 -85 15 -111 -4 l-22 -15 0
67 c0 88 -6 79 -13 -19 -8 -100 -22 -130 -32 -63 -8 49 -20 51 -29 4 -4 -25
-13 -45 -34 -76 -11 -16 -67 2 -57 18 3 6 -1 7 -9 4 -14 -5 -14 -8 -1 -21 17
-17 20 -27 5 -18 -5 3 -10 2 -10 -3 0 -11 -54 -72 -64 -72 -4 0 4 15 17 33 13
17 28 39 32 47 8 13 7 13 -8 1 -54 -43 19 74 200 322 61 83 11 40 -57 -50 -36
-47 -70 -90 -75 -97 -6 -6 -37 -48 -69 -93 -33 -46 -62 -83 -66 -83 -4 0 -15
9 -24 19 -17 18 -17 20 2 39 26 26 102 127 102 136 0 4 15 24 34 44 42 46 156
192 156 201 0 3 -16 -12 -35 -34 -19 -22 -34 -37 -35 -33 0 3 15 25 34 47 31
37 36 40 45 24 7 -13 10 20 9 117 l-2 135 -5 -101 -6 -101 -74 -84 c-41 -46
-84 -94 -95 -106 -12 -12 -32 -38 -46 -57 -14 -19 -31 -36 -37 -36 -7 0 -13
-7 -13 -15 0 -18 -49 -75 -52 -60 0 6 -2 15 -3 20 -2 6 -3 59 -4 118 -1 118
-3 120 -58 67 -13 -11 -23 -17 -23 -12 0 5 7 15 15 22 8 7 15 16 15 21 0 17
-16 9 -32 -18 -14 -24 -15 4 -12 393 4 387 13 587 33 690 8 44 5 64 -11 64 -7
0 -7 -4 0 -12 8 -10 -8 -13 -76 -13 -48 0 -90 3 -93 7 -3 5 -174 12 -380 18
-206 5 -509 14 -674 20 -165 5 -516 14 -780 20 -264 5 -572 12 -685 15 -115 3
-211 2 -218 -3z m2458 -76 c0 -2 -11 -6 -25 -8 -13 -3 -22 -1 -19 3 5 9 44 13
44 5z m-2215 -86 c3 -5 1 -10 -4 -10 -6 0 -11 5 -11 10 0 6 2 10 4 10 3 0 8
-4 11 -10z m1793 -15 c-3 -3 -9 2 -12 12 -6 14 -5 15 5 6 7 -7 10 -15 7 -18z
m-1448 5 c0 -5 -2 -10 -4 -10 -3 0 -8 5 -11 10 -3 6 -1 10 4 10 6 0 11 -4 11
-10z m1145 -30 c3 -5 1 -10 -4 -10 -6 0 -11 5 -11 10 0 6 2 10 4 10 3 0 8 -4
11 -10z m-385 -30 c0 -5 -2 -10 -4 -10 -3 0 -8 5 -11 10 -3 6 -1 10 4 10 6 0
11 -4 11 -10z m30 0 c0 -5 -2 -10 -4 -10 -3 0 -8 5 -11 10 -3 6 -1 10 4 10 6
0 11 -4 11 -10z m1100 0 c0 -5 -2 -10 -4 -10 -3 0 -8 5 -11 10 -3 6 -1 10 4
10 6 0 11 -4 11 -10z m-820 -10 c0 -5 -2 -10 -4 -10 -3 0 -8 5 -11 10 -3 6 -1
10 4 10 6 0 11 -4 11 -10z m30 0 c0 -5 -2 -10 -4 -10 -3 0 -8 5 -11 10 -3 6
-1 10 4 10 6 0 11 -4 11 -10z m30 -5 c0 -8 -2 -15 -4 -15 -2 0 -6 7 -10 15 -3
8 -1 15 4 15 6 0 10 -7 10 -15z m30 5 c0 -5 -2 -10 -4 -10 -3 0 -8 5 -11 10
-3 6 -1 10 4 10 6 0 11 -4 11 -10z m-1102 -25 c-3 -3 -9 2 -12 12 -6 14 -5 15
5 6 7 -7 10 -15 7 -18z m1780 -10 c-3 -3 -9 2 -12 12 -6 14 -5 15 5 6 7 -7 10
-15 7 -18z m-791 -17 c-3 -8 -6 -5 -6 6 -1 11 2 17 5 13 3 -3 4 -12 1 -19z
m30 0 c-3 -8 -6 -5 -6 6 -1 11 2 17 5 13 3 -3 4 -12 1 -19z m-1117 2 c0 -5 -2
-10 -4 -10 -3 0 -8 5 -11 10 -3 6 -1 10 4 10 6 0 11 -4 11 -10z m1190 0 c0 -5
-2 -10 -4 -10 -3 0 -8 5 -11 10 -3 6 -1 10 4 10 6 0 11 -4 11 -10z m248 -15
c-3 -3 -9 2 -12 12 -6 14 -5 15 5 6 7 -7 10 -15 7 -18z m-824 -1 c3 -8 2 -12
-4 -9 -6 3 -10 10 -10 16 0 14 7 11 14 -7z m491 -14 c3 -5 1 -10 -4 -10 -6 0
-11 5 -11 10 0 6 2 10 4 10 3 0 8 -4 11 -10z m63 -15 c-3 -3 -9 2 -12 12 -6
14 -5 15 5 6 7 -7 10 -15 7 -18z m30 0 c-3 -3 -9 2 -12 12 -6 14 -5 15 5 6 7
-7 10 -15 7 -18z m-1100 -10 c-3 -3 -9 2 -12 12 -6 14 -5 15 5 6 7 -7 10 -15
7 -18z m1087 -25 c3 -5 1 -10 -4 -10 -6 0 -11 5 -11 10 0 6 2 10 4 10 3 0 8
-4 11 -10z m30 0 c3 -5 1 -10 -4 -10 -6 0 -11 5 -11 10 0 6 2 10 4 10 3 0 8
-4 11 -10z m-691 -16 c3 -8 2 -12 -4 -9 -6 3 -10 10 -10 16 0 14 7 11 14 -7z
m646 -29 c0 -8 -2 -15 -4 -15 -2 0 -6 7 -10 15 -3 8 -1 15 4 15 6 0 10 -7 10
-15z m30 0 c0 -8 -2 -15 -4 -15 -2 0 -6 7 -10 15 -3 8 -1 15 4 15 6 0 10 -7
10 -15z m30 5 c0 -5 -2 -10 -4 -10 -3 0 -8 5 -11 10 -3 6 -1 10 4 10 6 0 11
-4 11 -10z m-83 -52 c-3 -8 -6 -5 -6 6 -1 11 2 17 5 13 3 -3 4 -12 1 -19z
m-322 -93 l6 -30 -15 25 c-17 28 -22 60 -7 45 5 -6 12 -23 16 -40z m-55 -6 c0
-6 -4 -7 -10 -4 -5 3 -10 11 -10 16 0 6 5 7 10 4 6 -3 10 -11 10 -16z m30 1
c0 -5 -2 -10 -4 -10 -3 0 -8 5 -11 10 -3 6 -1 10 4 10 6 0 11 -4 11 -10z m305
-10 c3 -5 1 -10 -4 -10 -6 0 -11 5 -11 10 0 6 2 10 4 10 3 0 8 -4 11 -10z m90
0 c3 -5 1 -10 -4 -10 -6 0 -11 5 -11 10 0 6 2 10 4 10 3 0 8 -4 11 -10z m33
-15 c-3 -3 -9 2 -12 12 -6 14 -5 15 5 6 7 -7 10 -15 7 -18z m-473 -15 c3 -5 1
-10 -4 -10 -6 0 -11 5 -11 10 0 6 2 10 4 10 3 0 8 -4 11 -10z m615 -35 c0 -8
-2 -15 -4 -15 -2 0 -6 7 -10 15 -3 8 -1 15 4 15 6 0 10 -7 10 -15z m-600 -5
c0 -5 -2 -10 -4 -10 -3 0 -8 5 -11 10 -3 6 -1 10 4 10 6 0 11 -4 11 -10z m30
0 c0 -5 -2 -10 -4 -10 -3 0 -8 5 -11 10 -3 6 -1 10 4 10 6 0 11 -4 11 -10z
m110 -50 c0 -5 -2 -10 -4 -10 -3 0 -8 5 -11 10 -3 6 -1 10 4 10 6 0 11 -4 11
-10z m60 -6 c0 -8 -4 -12 -10 -9 -5 3 -10 10 -10 16 0 5 5 9 10 9 6 0 10 -7
10 -16z m-15 -33 c3 -5 1 -12 -5 -16 -5 -3 -10 1 -10 9 0 18 6 21 15 7z m15
-121 c0 -5 -2 -10 -4 -10 -3 0 -8 5 -11 10 -3 6 -1 10 4 10 6 0 11 -4 11 -10z
m-190 -190 c0 -5 -2 -10 -4 -10 -3 0 -8 5 -11 10 -3 6 -1 10 4 10 6 0 11 -4
11 -10z m30 0 c0 -5 -2 -10 -4 -10 -3 0 -8 5 -11 10 -3 6 -1 10 4 10 6 0 11
-4 11 -10z m25 0 c3 -5 1 -10 -4 -10 -6 0 -11 5 -11 10 0 6 2 10 4 10 3 0 8
-4 11 -10z m1799 -202 c-10 -11 -28 -31 -39 -43 -11 -11 -30 -34 -42 -50 -12
-17 -22 -25 -22 -20 -1 11 107 135 116 135 4 0 -2 -10 -13 -22z m-2655 -134
c12 -10 -16 -24 -49 -24 -32 0 -39 3 -37 19 1 16 7 18 42 13 22 -2 42 -6 44
-8z m-160 -20 c38 -19 37 -19 -11 -27 -35 -5 -38 -4 -36 19 3 28 5 29 47 8z
m2701 13 c0 -2 -14 -16 -32 -33 l-32 -29 25 32 c20 27 39 41 39 30z m-74 -199
c-20 -11 -44 1 -25 12 6 5 19 6 27 3 12 -5 12 -7 -2 -15z m69 -8 c-3 -5 -11
-10 -16 -10 -6 0 -7 5 -4 10 3 6 11 10 16 10 6 0 7 -4 4 -10z m175 -194 c0 -3
-4 -8 -10 -11 -5 -3 -10 -1 -10 4 0 6 5 11 10 11 6 0 10 -2 10 -4z m60 -37 c0
-6 -6 -7 -12 -3 -10 6 -10 4 0 -7 14 -15 16 -65 3 -73 -9 -6 -22 84 -14 97 6
9 23 -1 23 -14z m8 -156 c-4 -26 -4 -26 -16 12 -9 31 -9 41 1 47 14 9 20 -17
15 -59z m-1598 23 c60 -16 88 -29 140 -66 75 -52 150 -146 150 -186 0 -13 6
-25 13 -27 9 -4 9 -6 -1 -6 -7 -1 -15 7 -18 17 -16 49 -22 55 -18 17 7 -60 26
-115 37 -108 5 3 1 -6 -8 -20 -13 -21 -15 -39 -10 -89 20 -187 -79 -360 -243
-422 -138 -53 -254 -43 -383 34 -171 101 -281 316 -250 485 14 73 49 151 89
197 29 32 161 127 222 158 60 32 191 39 280 16z m1607 -118 c-3 -8 -6 -5 -6 6
-1 11 2 17 5 13 3 -3 4 -12 1 -19z m143 -119 c0 -16 -4 -28 -9 -25 -8 5 -3 56
5 56 2 0 4 -14 4 -31z m51 -145 c-6 -28 -9 -32 -10 -14 -1 30 11 79 16 64 2
-6 -1 -28 -6 -50z m-1504 -46 c-3 -8 -6 -5 -6 6 -1 11 2 17 5 13 3 -3 4 -12 1
-19z m1073 -228 c-10 -23 -10 -22 -5 9 3 18 6 45 7 60 1 19 2 16 5 -9 2 -20
-1 -47 -7 -60z m525 55 l30 -14 -35 6 c-19 3 -44 10 -55 14 -18 7 -17 8 5 8
14 0 39 -6 55 -14z m-8 -77 c-3 -7 -5 -2 -5 12 0 14 2 19 5 13 2 -7 2 -19 0
-25z m-60 -10 c-3 -7 -5 -2 -5 12 0 14 2 19 5 13 2 -7 2 -19 0 -25z m59 -66
c-12 -11 -18 7 -10 30 l8 23 4 -23 c2 -13 1 -26 -2 -30z m-6 -48 c-18 -21 -24
-10 -8 15 7 12 14 17 16 11 2 -6 -2 -17 -8 -26z m-449 -317 c-1 -12 -15 -9
-19 4 -3 6 1 10 8 8 6 -3 11 -8 11 -12z m415 -122 l-7 -36 -57 7 c-70 8 -83
16 -22 14 67 -3 68 -2 75 31 10 42 19 28 11 -16z m-356 -550 c-17 -38 -29 -74
-26 -81 3 -8 -1 -11 -10 -7 -16 6 -18 15 -5 29 5 5 16 36 26 69 9 33 22 63 28
67 22 13 18 -8 -13 -77z m264 10 c11 -8 18 -17 15 -19 -2 -3 -15 4 -29 14 -14
11 -20 20 -15 19 6 0 19 -6 29 -14z m-111 -85 c-7 -28 -13 -25 -13 6 0 14 4
23 9 20 5 -3 7 -15 4 -26z m-199 -54 c-3 -15 -8 -25 -11 -23 -2 3 -1 17 3 31
3 15 8 25 11 23 2 -3 1 -17 -3 -31z m-18 -73 c-9 -50 -37 -135 -42 -130 -5 5
39 167 45 167 2 0 0 -17 -3 -37z m-106 -20 c-11 -17 -11 -17 -6 0 3 10 7 26 7
35 1 15 2 15 6 0 2 -10 -1 -25 -7 -35z m-43 -5 c-3 -8 -6 -5 -6 6 -1 11 2 17
5 13 3 -3 4 -12 1 -19z m-58 -42 c-9 -8 -10 -7 -5 7 3 10 7 26 7 35 1 9 4 6 6
-7 3 -13 -1 -28 -8 -35z m318 2 c-3 -8 -6 -5 -6 6 -1 11 2 17 5 13 3 -3 4 -12
1 -19z m-12 -158 c-7 -128 -8 -131 -29 -126 -11 3 -27 6 -33 6 -23 0 -13 28
18 53 l32 25 -32 7 c-34 7 -36 15 -25 99 6 43 9 46 35 46 20 0 29 5 29 17 0 9
3 14 6 10 3 -3 3 -65 -1 -137z m-148 48 c-3 -7 -5 -2 -5 12 0 14 2 19 5 13 2
-7 2 -19 0 -25z m380 -278 c1 -27 -1 -50 -3 -50 -3 0 -18 7 -34 15 -31 16 -40
35 -17 35 6 1 21 12 32 25 11 14 20 25 21 25 0 0 1 -22 1 -50z m-2811 -21 c8
-14 -20 -10 -41 5 -18 13 -18 14 8 9 15 -3 30 -9 33 -14z m124 2 c45 -9 228
-37 425 -66 59 -9 420 -62 575 -86 74 -11 182 -26 240 -34 58 -8 182 -26 275
-39 94 -14 226 -32 295 -42 69 -9 134 -18 145 -19 11 -2 28 -4 38 -4 10 -1 16
-5 12 -10 -3 -5 -20 -8 -38 -5 -17 2 -194 27 -392 54 -331 46 -1198 171 -1530
220 -77 12 -141 23 -143 25 -9 9 11 25 26 21 10 -2 42 -9 72 -15z m2655 -282
c11 -16 1 -19 -13 -3 -7 8 -8 14 -3 14 5 0 13 -5 16 -11z m-578 -45 c-3 -3
-12 -4 -19 -1 -8 3 -5 6 6 6 11 1 17 -2 13 -5z m87 -108 c-7 -18 -31 -21 -54
-6 -8 5 -13 10 -10 11 3 0 15 2 27 3 13 2 26 6 30 9 10 11 14 2 7 -17z m-64
-328 c0 -79 -4 -136 -8 -128 -7 16 -4 270 4 270 2 0 4 -64 4 -142z m-5 -287
c-5 -138 -4 -129 -14 -111 -11 19 -1 256 10 239 4 -7 6 -65 4 -128z m-1952
-48 c-7 -2 -21 -2 -30 0 -10 3 -4 5 12 5 17 0 24 -2 18 -5z m126 -19 c8 -7
-64 -2 -89 6 -16 6 -6 7 30 3 30 -3 57 -7 59 -9z m564 -101 c-7 -2 -21 -2 -30
0 -10 3 -4 5 12 5 17 0 24 -2 18 -5z m1197 -183 c0 -5 -7 -7 -15 -4 -8 4 -15
8 -15 10 0 2 7 4 15 4 8 0 15 -4 15 -10z m65 0 c-3 -5 -17 -10 -31 -10 -14 0
-22 4 -19 10 3 6 17 10 31 10 14 0 22 -4 19 -10z m25 -36 c0 -11 -5 -14 -16
-10 -9 3 -18 6 -20 6 -3 0 -2 5 1 10 10 16 35 12 35 -6z"/>
<path d="M2662 3956 c-18 -6 -30 -15 -25 -20 4 -5 3 -6 -4 -2 -7 3 -27 0 -45
-9 -32 -15 -32 -15 -4 -10 47 10 188 6 226 -5 22 -6 38 -6 44 0 7 7 0 10 -19
10 -17 0 -43 7 -59 15 -15 8 -40 15 -55 15 -20 0 -23 2 -11 10 13 9 13 10 0 9
-8 0 -30 -6 -48 -13z"/>
<path d="M2891 3919 c6 -3 0 -9 -13 -13 -22 -6 -21 -8 17 -28 42 -21 109 -73
157 -120 15 -15 28 -24 28 -20 0 12 -36 62 -42 57 -2 -3 -15 7 -29 23 -13 15
-17 21 -9 15 16 -15 34 -17 26 -4 -3 5 4 11 15 14 19 5 20 4 5 -12 -17 -19
-22 -36 -7 -26 5 3 22 -12 37 -32 53 -73 56 -68 6 10 -26 43 -21 65 8 30 23
-29 34 -30 20 -2 -6 11 -24 28 -41 38 -16 10 -26 20 -23 24 3 3 -12 13 -33 23
-21 10 -40 21 -43 24 -3 3 -24 6 -47 6 -23 0 -37 -3 -32 -7z m59 -9 c-8 -5
-22 -9 -30 -9 -10 0 -8 3 5 9 27 12 43 12 25 0z m0 -30 c-8 -5 -18 -6 -24 -3
-5 4 -1 10 10 13 24 9 34 2 14 -10z"/>
<path d="M2573 3885 c-148 -46 -254 -182 -255 -327 0 -84 3 -122 11 -133 4 -5
13 -29 20 -53 6 -23 16 -40 21 -37 6 4 10 -3 10 -14 0 -11 5 -23 12 -27 8 -5
9 0 4 17 -3 13 -9 38 -11 54 l-5 30 12 -32 c7 -17 16 -35 21 -39 4 -4 7 -15 7
-24 0 -8 14 -31 31 -50 l30 -35 -18 33 c-9 17 -21 32 -25 32 -4 0 -8 7 -8 15
0 8 5 15 10 15 6 0 13 -7 16 -15 8 -19 24 -20 24 -1 0 8 -7 16 -15 20 -8 3
-15 14 -15 25 0 11 -8 22 -17 24 -17 4 -17 5 -1 6 22 1 128 -106 128 -130 0
-4 25 -16 55 -24 30 -9 53 -20 50 -25 -7 -11 15 -17 89 -26 39 -4 57 -3 53 4
-12 19 23 35 82 36 33 0 59 -3 58 -8 -4 -19 32 -17 52 3 23 23 47 28 35 9 -4
-7 2 -4 14 6 12 11 32 24 43 30 60 31 83 226 40 337 -75 194 -253 320 -451
318 -36 0 -84 -6 -107 -14z m-213 -249 c0 -3 -4 -8 -10 -11 -5 -3 -10 -1 -10
4 0 6 5 11 10 11 6 0 10 -2 10 -4z m8 -76 c-9 -13 -14 -16 -20 -7 -4 6 -2 15
5 19 21 14 28 9 15 -12z m-18 -59 c0 -12 -5 -21 -11 -21 -6 0 -8 9 -4 21 4 12
3 19 -2 16 -5 -3 -10 3 -10 14 -2 17 0 17 13 5 8 -8 14 -24 14 -35z m17 -128
c-3 -10 -5 -2 -5 17 0 19 2 27 5 18 2 -10 2 -26 0 -35z m378 -38 c52 -38 117
-57 210 -63 94 -6 92 -10 -14 -31 -39 -8 -50 -5 -113 28 -38 20 -86 51 -106
69 -39 35 -28 33 23 -3z"/>
<path d="M3130 3700 c0 -5 5 -10 10 -10 6 0 10 5 10 10 0 6 -4 10 -10 10 -5 0
-10 -4 -10 -10z"/>
<path d="M3140 3632 c6 -13 14 -21 18 -18 3 4 -2 14 -12 24 -18 16 -18 16 -6
-6z"/>
<path d="M3150 3589 c0 -5 5 -7 10 -4 6 3 10 8 10 11 0 2 -4 4 -10 4 -5 0 -10
-5 -10 -11z"/>
<path d="M2871 3169 c-18 -11 -31 -23 -28 -26 11 -11 57 7 67 27 14 25 4 25
-39 -1z"/>
<path d="M4501 5614 c0 -11 3 -14 6 -6 3 7 2 16 -1 19 -3 4 -6 -2 -5 -13z"/>
<path d="M4503 5140 c0 -36 2 -50 4 -32 2 17 2 47 0 65 -2 17 -4 3 -4 -33z"/>
<path d="M4530 4790 c0 -5 7 -7 15 -4 8 4 15 8 15 10 0 2 -7 4 -15 4 -8 0 -15
-4 -15 -10z"/>
<path d="M4125 4769 c-11 -17 1 -21 15 -4 8 9 8 15 2 15 -6 0 -14 -5 -17 -11z"/>
<path d="M4515 4710 c-10 -11 -14 -20 -9 -20 5 0 15 9 22 20 7 11 11 20 9 20
-2 0 -12 -9 -22 -20z"/>
<path d="M4418 4575 c-43 -58 -78 -111 -78 -118 0 -6 16 11 35 38 19 28 38 55
43 60 9 12 65 95 76 113 20 34 -6 2 -76 -93z"/>
<path d="M4185 4540 c-10 -11 -16 -22 -13 -25 3 -3 13 6 22 20 20 30 16 32 -9
5z"/>
<path d="M4696 4481 c-39 -5 -46 -8 -35 -17 20 -17 81 -12 110 8 l24 17 -25
-1 c-14 -1 -47 -4 -74 -7z"/>
<path d="M4542 4463 c-13 -5 -57 -83 -46 -83 8 0 34 27 34 36 0 4 10 18 22 31
21 22 18 27 -10 16z"/>
<path d="M4717 4401 c-49 -51 -55 -61 -34 -61 6 0 18 14 25 30 14 32 32 40 32
15 0 -8 -5 -15 -12 -15 -7 0 -5 -7 5 -18 16 -17 21 -82 6 -82 -4 0 -11 16 -15
35 -3 20 -9 34 -12 31 -2 -3 1 -26 8 -51 l13 -47 23 29 c17 21 25 25 34 17 13
-13 5 -54 -11 -54 -5 0 -9 5 -9 10 0 6 5 10 10 10 6 0 10 8 10 18 0 13 -6 10
-25 -13 -29 -35 -30 -43 -10 -65 17 -19 23 -92 11 -128 -7 -22 -6 -22 13 -10
14 8 19 20 16 33 -3 11 -2 14 1 7 10 -21 24 -2 23 31 -1 18 -3 24 -6 15 -8
-33 -33 -12 -33 28 0 17 26 19 34 2 4 -7 4 2 1 21 -3 18 -5 57 -5 85 0 29 -4
46 -8 39 -5 -7 -7 22 -6 65 1 42 0 71 -3 65 -2 -7 -9 -13 -14 -13 -6 0 -7 5
-4 10 16 26 -15 5 -58 -39z m68 -33 c-2 -28 -9 -56 -16 -64 -12 -11 -14 -6
-15 34 -2 41 0 44 12 27 8 -10 14 -15 14 -11 0 4 -9 19 -20 34 -15 18 -17 27
-9 33 25 15 36 -2 34 -53z m-6 -164 c3 -16 1 -17 -13 -5 -19 16 -21 34 -3 29
6 -3 14 -13 16 -24z"/>
<path d="M1310 4305 c-52 -30 -177 -84 -235 -101 -42 -13 -53 -19 -38 -22 13
-2 60 13 105 32 92 39 129 47 135 29 3 -8 -4 -13 -19 -14 -22 0 -22 -1 -3 -9
16 -7 14 -9 -15 -9 -19 -1 -57 -7 -85 -15 l-50 -13 80 -7 c125 -10 226 -9 238
3 8 8 7 11 -3 12 -10 0 -7 4 5 9 11 5 47 6 79 3 43 -4 57 -3 52 6 -5 7 -39 11
-91 11 -58 0 -88 4 -97 13 -7 8 -22 12 -33 10 -16 -4 -17 -3 -5 6 12 9 11 11
-7 11 -34 0 -28 25 10 44 17 8 25 16 17 16 -8 -1 -26 -7 -40 -15z"/>
<path d="M4620 4285 c-7 -8 -17 -12 -23 -8 -6 3 -7 1 -3 -5 4 -7 4 -17 0 -23
-5 -8 -8 -8 -13 0 -5 8 -13 6 -24 -7 -14 -15 -14 -19 -2 -19 8 0 12 4 9 8 -2
4 5 7 16 6 13 -1 20 -9 21 -22 0 -11 5 -29 10 -40 6 -14 7 -3 3 33 -5 42 -3
57 12 73 9 10 15 19 12 19 -3 0 -11 -7 -18 -15z"/>
<path d="M1463 4163 c9 -2 25 -2 35 0 9 3 1 5 -18 5 -19 0 -27 -2 -17 -5z"/>
<path d="M4720 4030 c0 -5 5 -10 10 -10 6 0 10 5 10 10 0 6 -4 10 -10 10 -5 0
-10 -4 -10 -10z"/>
<path d="M4786 3891 c-4 -7 -5 -15 -2 -18 9 -9 19 4 14 18 -4 11 -6 11 -12 0z"/>
<path d="M4721 3724 c0 -11 3 -14 6 -6 3 7 2 16 -1 19 -3 4 -6 -2 -5 -13z"/>
<path d="M4781 2714 c0 -11 3 -14 6 -6 3 7 2 16 -1 19 -3 4 -6 -2 -5 -13z"/>
<path d="M4742 2558 c0 -13 -7 -70 -15 -128 -8 -58 -13 -107 -11 -109 3 -3 11
2 19 10 10 10 14 46 17 126 1 62 0 115 -4 118 -3 3 -6 -4 -6 -17z"/>
<path d="M4446 1765 c-4 -11 -1 -22 6 -27 29 -18 37 -4 15 26 -13 18 -14 18
-21 1z"/>
<path d="M4691 1544 c0 -11 3 -14 6 -6 3 7 2 16 -1 19 -3 4 -6 -2 -5 -13z"/>
<path d="M4740 1377 c0 -8 -3 -34 -6 -59 l-6 -45 45 -1 45 -2 4 52 c2 29 4 54
4 54 -1 1 -20 5 -43 9 -34 5 -43 4 -43 -8z"/>
<path d="M4723 1237 c-7 -11 -24 -219 -19 -232 2 -5 23 -10 46 -10 50 0 47 -8
56 141 l7 102 -42 4 c-24 2 -45 0 -48 -5z m60 -77 c-1 -14 -4 -51 -8 -82 -6
-53 -9 -58 -31 -58 -23 0 -24 2 -18 63 9 100 12 109 37 105 17 -2 22 -9 20
-28z"/>
<path d="M4660 1031 c0 -6 5 -13 10 -16 6 -3 10 1 10 9 0 9 -4 16 -10 16 -5 0
-10 -4 -10 -9z"/>
<path d="M1851 480 c-23 -32 -27 -50 -10 -50 5 0 7 5 4 10 -3 6 1 13 9 16 9 3
16 12 16 20 0 8 6 14 14 14 22 0 28 16 7 17 -10 1 -28 -11 -40 -27z"/>
</g>
</svg>
